<?xml version="1.0" encoding="utf-8"?>
<!DOCTYPE svg PUBLIC "-//W3C//DTD SVG 1.1//EN" "http://www.w3.org/Graphics/SVG/1.1/DTD/svg11.dtd">
<svg xmlns="http://www.w3.org/2000/svg" xmlns:xlink="http://www.w3.org/1999/xlink" version="1.1" baseProfile="full" width="576.131" height="192.044" viewBox="0 0 576.13 192.04" enable-background="new 0 0 576.13 192.04" xml:space="preserve">
	<path fill="#F8F8F8" fill-opacity="1" stroke-width="0.2" stroke-linejoin="round" d="M 16.0034,0L 560.128,0C 568.966,0 576.131,7.16508 576.131,16.0036L 576.131,176.04C 576.131,184.879 568.966,192.044 560.128,192.044L 16.0034,192.044C 7.16485,192.044 -0.000224173,184.879 -0.000224173,176.04L -0.000224173,16.0036C -0.000224173,7.16508 7.16485,0 16.0034,0 Z "/>
	<g>
		<path fill="#0033A1" fill-opacity="1" stroke-width="0.2" stroke-linejoin="round" d="M 261.838,113.234L 274.638,115.959C 268.772,139.742 255.53,151.634 234.913,151.634C 221.363,151.634 210.73,146.217 203.013,135.384C 195.297,124.55 191.438,111.234 191.438,95.4338C 191.438,79.1004 195.467,65.9838 203.526,56.0838C 211.584,46.1838 222.388,41.2338 235.938,41.2338C 256.038,41.2338 268.938,52.6671 274.638,75.5338L 261.838,78.0338C 257.238,60.9671 248.522,52.4338 235.688,52.4338C 226.205,52.4338 218.859,56.3629 213.651,64.2213C 208.442,72.0796 205.838,83.1171 205.838,97.3338C 205.838,110.35 208.488,120.788 213.788,128.646C 219.088,136.505 226.113,140.434 234.863,140.434C 248.43,140.434 257.422,131.367 261.838,113.234 Z "/>
		<path fill="#0033A1" fill-opacity="1" stroke-width="0.2" stroke-linejoin="round" d="M 290.638,150.034L 290.638,42.8338L 332.863,42.8338C 343.513,42.8338 351.405,45.3754 356.538,50.4588C 361.672,55.5421 364.238,61.4421 364.238,68.1588C 364.238,79.9421 357.938,87.7671 345.338,91.6338C 352.838,93.6171 358.397,97.1588 362.013,102.259C 365.63,107.359 367.438,113.134 367.438,119.584C 367.438,128.234 364.613,135.471 358.963,141.296C 353.313,147.121 344.605,150.034 332.838,150.034L 290.638,150.034 Z M 303.438,87.6338L 326.188,87.6338C 335.622,87.6338 341.922,85.8629 345.088,82.3213C 348.255,78.7796 349.838,74.6254 349.838,69.8588C 349.838,65.1421 348.142,61.3254 344.751,58.4088C 341.359,55.4921 336.288,54.0338 329.538,54.0338L 303.438,54.0338L 303.438,87.6338 Z M 303.438,138.834L 331.538,138.834C 338.405,138.834 343.705,137.1 347.438,133.634C 351.172,130.167 353.038,125.659 353.038,120.109C 353.038,116.225 352.192,112.617 350.501,109.284C 348.809,105.95 346.43,103.375 343.363,101.559C 340.297,99.7421 335.713,98.8338 329.613,98.8338L 303.438,98.8338L 303.438,138.834 Z "/>
		<path fill="#0033A1" fill-opacity="1" stroke-width="0.2" stroke-linejoin="round" d="M 452.238,42.8338L 421.938,92.4088L 457.038,150.034L 442.338,150.034L 414.588,104.434L 386.713,150.034L 373.838,150.034L 408.163,93.9088L 377.038,42.8338L 391.738,42.8338L 415.538,81.8588L 439.363,42.8338L 452.238,42.8338 Z "/>
		<path fill="#0033A1" fill-opacity="1" stroke-width="0.2" stroke-linejoin="round" d="M 482.638,150.034L 469.838,150.034L 469.838,42.8338L 508.263,42.8338C 520.28,42.8338 529.147,46.0838 534.863,52.5838C 540.58,59.0838 543.438,66.4838 543.438,74.7838C 543.438,84.0504 540.288,91.7088 533.988,97.7588C 527.688,103.809 519.447,106.834 509.263,106.834L 482.638,106.834L 482.638,150.034 Z M 482.638,95.6338L 507.638,95.6338C 514.055,95.6338 519.226,93.7213 523.151,89.8963C 527.076,86.0713 529.038,81.0254 529.038,74.7588C 529.038,69.3754 527.288,64.5754 523.788,60.3588C 520.288,56.1421 515.222,54.0338 508.588,54.0338L 482.638,54.0338L 482.638,95.6338 Z "/>
	</g>
	<path fill="none" stroke-width="10.6691" stroke-linejoin="round" stroke="#000000" stroke-opacity="1" d="M 48.011,32.0073L 144.032,32.0073C 152.871,32.0073 160.036,39.1723 160.036,48.0109L 160.036,144.033C 160.036,152.871 152.871,160.036 144.032,160.036L 48.011,160.036C 39.1724,160.036 32.0073,152.871 32.0073,144.033L 32.0073,48.0109C 32.0073,39.1723 39.1724,32.0073 48.011,32.0073 Z "/>
	<g>
		<path fill="#000000" fill-opacity="1" stroke-width="0.2" stroke-linejoin="round" d="M 56.0482,78.0183L 56.0482,48.4316L 60.2149,48.4316L 60.2149,78.0183L 56.0482,78.0183 Z M 48.5482,78.0183L 48.5482,74.0583L 56.4682,74.0583L 56.4682,78.0183L 48.5482,78.0183 Z M 59.8015,78.0183L 59.8015,74.0583L 66.9282,74.0583L 66.9282,78.0183L 59.8015,78.0183 Z M 48.9682,55.145L 48.9682,50.9316L 56.0482,48.4316L 56.0482,52.725L 48.9682,55.145 Z "/>
		<path fill="#000000" fill-opacity="1" stroke-width="0.2" stroke-linejoin="round" d="M 82.6815,78.4316C 75.9615,78.4316 72.6015,73.4316 72.6015,63.4316C 72.6015,53.1561 75.9615,48.0183 82.6815,48.0183C 89.406,48.0183 92.7682,53.1561 92.7682,63.4316C 92.7682,73.4316 89.406,78.4316 82.6815,78.4316 Z M 82.6815,66.5583C 81.7527,66.5583 80.9993,66.2705 80.4215,65.695C 79.8438,65.1194 79.5549,64.365 79.5549,63.4316C 79.5549,62.4894 79.8438,61.7339 80.4215,61.165C 80.9993,60.5961 81.7527,60.3116 82.6815,60.3116C 83.6282,60.3116 84.386,60.5961 84.9549,61.165C 85.5238,61.7339 85.8082,62.4894 85.8082,63.4316C 85.8082,64.365 85.5238,65.1194 84.9549,65.695C 84.386,66.2705 83.6282,66.5583 82.6815,66.5583 Z M 82.6815,74.5983C 86.4327,74.5983 88.3082,70.8761 88.3082,63.4316C 88.3082,55.7116 86.4327,51.8516 82.6815,51.8516C 78.9304,51.8516 77.0549,55.7116 77.0549,63.4316C 77.0549,70.8761 78.9304,74.5983 82.6815,74.5983 Z "/>
		<path fill="#000000" fill-opacity="1" stroke-width="0.2" stroke-linejoin="round" d="M 106.395,78.0183L 106.395,48.4316L 110.562,48.4316L 110.562,78.0183L 106.395,78.0183 Z M 98.8949,78.0183L 98.8949,74.0583L 106.815,74.0583L 106.815,78.0183L 98.8949,78.0183 Z M 110.148,78.0183L 110.148,74.0583L 117.275,74.0583L 117.275,78.0183L 110.148,78.0183 Z M 99.3149,55.145L 99.3149,50.9316L 106.395,48.4316L 106.395,52.725L 99.3149,55.145 Z "/>
		<path fill="#000000" fill-opacity="1" stroke-width="0.2" stroke-linejoin="round" d="M 133.028,78.4316C 126.308,78.4316 122.948,73.4316 122.948,63.4316C 122.948,53.1561 126.308,48.0183 133.028,48.0183C 139.753,48.0183 143.115,53.1561 143.115,63.4316C 143.115,73.4316 139.753,78.4316 133.028,78.4316 Z M 133.028,66.5583C 132.099,66.5583 131.346,66.2705 130.768,65.695C 130.19,65.1194 129.902,64.365 129.902,63.4316C 129.902,62.4894 130.19,61.7339 130.768,61.165C 131.346,60.5961 132.099,60.3116 133.028,60.3116C 133.975,60.3116 134.733,60.5961 135.302,61.165C 135.87,61.7339 136.155,62.4894 136.155,63.4316C 136.155,64.365 135.87,65.1194 135.302,65.695C 134.733,66.2705 133.975,66.5583 133.028,66.5583 Z M 133.028,74.5983C 136.779,74.5983 138.655,70.8761 138.655,63.4316C 138.655,55.7116 136.779,51.8516 133.028,51.8516C 129.277,51.8516 127.402,55.7116 127.402,63.4316C 127.402,70.8761 129.277,74.5983 133.028,74.5983 Z "/>
	</g>
	<g>
		<path fill="#000000" fill-opacity="1" stroke-width="0.2" stroke-linejoin="round" d="M 84.5872,142.97C 81.406,142.97 78.9403,142.017 77.1903,140.111C 75.4403,138.205 74.5653,135.542 74.5653,132.123C 74.5653,130.486 74.7716,128.865 75.1841,127.262C 75.5966,125.659 75.8028,123.998 75.8028,122.28C 75.8028,121.186 75.3388,120.333 74.4106,119.72C 73.4825,119.108 72.3981,118.678 71.1575,118.431C 69.9169,118.184 68.8278,118.061 67.8903,118.061L 67.8903,113.439C 68.5716,113.439 69.3575,113.345 70.2481,113.158C 71.1388,112.97 72.0075,112.697 72.8544,112.337C 73.7013,111.978 74.4044,111.534 74.9638,111.006C 75.5231,110.478 75.8028,109.883 75.8028,109.22C 75.8028,107.42 75.5966,105.739 75.1841,104.176C 74.7716,102.614 74.5653,101.014 74.5653,99.3764C 74.5653,96.0764 75.4403,93.5326 77.1903,91.7451C 78.9403,89.9576 81.406,89.0639 84.5872,89.0639C 85.7372,89.0639 86.6935,89.117 87.456,89.2233C 88.2184,89.3295 88.9216,89.4701 89.5653,89.6451L 88.8622,94.6233C 88.1809,94.5295 87.5231,94.4576 86.8888,94.4076C 86.2544,94.3576 85.6622,94.3326 85.1122,94.3326C 83.7247,94.3326 82.6653,94.7717 81.9341,95.6498C 81.2028,96.528 80.8372,97.7701 80.8372,99.3764C 80.8372,101.076 81.0622,102.697 81.5122,104.237C 81.9622,105.778 82.1872,107.398 82.1872,109.098C 82.1872,111.036 81.5138,112.536 80.1669,113.598C 78.82,114.661 76.9341,115.211 74.5091,115.248L 74.5091,116.251C 76.9341,116.289 78.82,116.859 80.1669,117.962C 81.5138,119.065 82.1872,120.545 82.1872,122.401C 82.1872,124.176 81.9622,125.836 81.5122,127.38C 81.0622,128.923 80.8372,130.505 80.8372,132.123C 80.8372,133.905 81.2028,135.278 81.9341,136.244C 82.6653,137.209 83.7247,137.692 85.1122,137.692C 85.6622,137.692 86.2544,137.662 86.8888,137.603C 87.5231,137.544 88.1809,137.476 88.8622,137.401L 89.5653,142.38C 88.9216,142.555 88.2184,142.697 87.456,142.806C 86.6935,142.915 85.7372,142.97 84.5872,142.97 Z "/>
		<path fill="#000000" fill-opacity="1" stroke-width="0.2" stroke-linejoin="round" d="M 107.387,142.97C 106.256,142.97 105.304,142.915 104.533,142.806C 103.761,142.697 103.053,142.555 102.409,142.38L 103.112,137.401C 103.793,137.476 104.453,137.544 105.09,137.603C 105.728,137.662 106.318,137.692 106.862,137.692C 108.25,137.692 109.309,137.209 110.04,136.244C 110.772,135.278 111.137,133.905 111.137,132.123C 111.137,130.505 110.914,128.923 110.467,127.38C 110.02,125.836 109.797,124.176 109.797,122.401C 109.797,120.545 110.47,119.065 111.817,117.962C 113.164,116.859 115.047,116.289 117.465,116.251L 117.465,115.248C 115.047,115.211 113.164,114.661 111.817,113.598C 110.47,112.536 109.797,111.036 109.797,109.098C 109.797,107.398 110.02,105.778 110.467,104.237C 110.914,102.697 111.137,101.076 111.137,99.3764C 111.137,97.7701 110.772,96.528 110.04,95.6498C 109.309,94.7717 108.25,94.3326 106.862,94.3326C 106.318,94.3326 105.728,94.3576 105.09,94.4076C 104.453,94.4576 103.793,94.5295 103.112,94.6233L 102.409,89.6451C 103.053,89.4701 103.761,89.3295 104.533,89.2233C 105.304,89.117 106.256,89.0639 107.387,89.0639C 110.575,89.0639 113.042,89.9576 114.789,91.7451C 116.536,93.5326 117.409,96.0764 117.409,99.3764C 117.409,101.014 117.204,102.614 116.795,104.176C 116.386,105.739 116.181,107.42 116.181,109.22C 116.181,109.883 116.459,110.478 117.015,111.006C 117.572,111.534 118.275,111.978 119.125,112.337C 119.975,112.697 120.848,112.97 121.745,113.158C 122.642,113.345 123.425,113.439 124.093,113.439L 124.093,118.061C 123.156,118.061 122.067,118.184 120.826,118.431C 119.586,118.678 118.501,119.108 117.573,119.72C 116.645,120.333 116.181,121.186 116.181,122.28C 116.181,123.998 116.386,125.659 116.795,127.262C 117.204,128.865 117.409,130.486 117.409,132.123C 117.409,135.542 116.536,138.205 114.789,140.111C 113.042,142.017 110.575,142.97 107.387,142.97 Z "/>
	</g>
</svg>
